<svg width="67" height="61" viewBox="0 0 67 61" fill="none" xmlns="http://www.w3.org/2000/svg">
<path d="M24.5781 21.5H24.8465C25.3203 21.5 25.5576 21.5 25.7508 21.5855C25.9212 21.6608 26.0668 21.7822 26.1719 21.936C26.2908 22.1103 26.3338 22.3429 26.4195 22.8073L28.5782 34.5L38.9999 34.5C39.4531 34.5 39.6804 34.5 39.8682 34.4199C40.034 34.3492 40.177 34.2346 40.2832 34.0889C40.4033 33.9242 40.4542 33.7037 40.5559 33.2631L40.5566 33.26L42.1259 26.46L42.1262 26.4585C42.2804 25.7902 42.3577 25.4552 42.2729 25.1924C42.1984 24.9618 42.0416 24.7663 41.8337 24.6419C41.5966 24.5 41.2539 24.5 40.5668 24.5H27.0781M39.5781 39.5C39.0258 39.5 38.5781 39.0523 38.5781 38.5C38.5781 37.9477 39.0258 37.5 39.5781 37.5C40.1304 37.5 40.5781 37.9477 40.5781 38.5C40.5781 39.0523 40.1304 39.5 39.5781 39.5ZM29.5781 39.5C29.0258 39.5 28.5781 39.0523 28.5781 38.5C28.5781 37.9477 29.0258 37.5 29.5781 37.5C30.1304 37.5 30.5781 37.9477 30.5781 38.5C30.5781 39.0523 30.1304 39.5 29.5781 39.5Z" stroke="#2D2D2D" stroke-width="2" stroke-linecap="round" stroke-linejoin="round"/>
</svg>
